Patient4_TMGait_0pt4_02_right_06_GRF.mot
version=1
nRows=65
nColumns=19
inDegrees=no
endheader
time	F1x	F1y	F1z	M1x	M1y	M1z	F2x	F2y	F2z	M2x	M2y	M2z	EC1x	EC1y	EC1z	EC2x	EC2y	EC2z
7.39	-6.234	729.9249	50.4787	-251.2398	-54.7383	801.8121	18.2737	6.7374	-25.5101	7.444	14.3412	3.171	-0.0592	0.0182	-0.0073	-0.0462	0.0165	0.9585
7.4035	-5.791	730.191	50.9866	-250.9217	-54.6206	798.4013	12.1903	4.6607	-17.2119	5.1157	9.7657	2.3438	-0.0592	0.0182	-0.0073	-0.0462	0.0165	0.9585
7.417	-4.9624	730.8755	51.4396	-250.6535	-54.2786	795.0722	7.043	2.9842	-10.1656	3.1581	5.8741	1.7309	-0.0592	0.0182	-0.0073	-0.0462	0.0165	0.9585
7.4305	-3.7415	732.4049	51.8543	-250.5973	-53.7517	792.4014	3.1201	1.7833	-4.7837	1.684	2.8945	1.3487	-0.0592	0.0182	-0.0073	-0.0462	0.0165	0.9585
7.444	-2.1562	735.1428	52.2746	-250.8979	-53.1126	790.833	0.40318	1.0119	-1.0579	0.6794	0.8254	1.1453	-0.0592	0.0182	-0.0073	-0.0462	0.0165	0.9585
7.4575	-0.25544	739.2673	52.7206	-251.6427	-52.4058	790.5824	-1.2979	0.58773	1.2543	0.070734	-0.46298	1.0737	-0.0592	0.0182	-0.0073	-0.0462	0.0165	0.9585
7.471	1.9055	744.7265	53.1738	-252.8432	-51.6365	791.6179	-2.227	0.41217	2.4758	-0.24084	-1.1419	1.0843	-0.0592	0.0182	-0.0073	-0.0462	0.0165	0.9585
7.4845	4.2676	751.2355	53.5828	-254.4253	-50.7767	793.6718	-2.6214	0.36746	2.9376	-0.36127	-1.3886	1.1067	-0.0592	0.0182	-0.0073	-0.0462	0.0165	0.9585
7.498	6.7888	758.3105	53.8872	-256.2365	-49.7835	796.2805	-2.7028	0.34427	2.9223	-0.38592	-1.3485	1.0741	-0.0592	0.0182	-0.0073	-0.0462	0.0165	0.9585
7.5115	9.4365	765.3209	54.0359	-258.0642	-48.6166	798.8305	-2.6199	0.24207	2.6422	-0.39375	-1.1353	0.90234	-0.0592	0.0182	-0.0073	-0.0462	0.0165	0.9585
7.525	12.1953	771.5871	54.0149	-259.6672	-47.2626	800.6564	-2.4855	-0.025591	2.2442	-0.44767	-0.82887	0.51912	-0.0592	0.0182	-0.0073	-0.0462	0.0165	0.9585
7.5385	15.0709	776.4793	53.8261	-260.816	-45.719	801.1482	-2.366	-0.54112	1.8204	-0.59857	-0.48548	-0.1598	-0.0592	0.0182	-0.0073	-0.0462	0.0165	0.9585
7.552	18.0373	779.4899	53.4996	-261.3213	-44.0218	799.8418	-2.2717	-1.3554	1.4287	-0.87843	-0.15554	-1.1901	-0.0592	0.0182	-0.0073	-0.0462	0.0165	0.9585
7.5655	21.0301	780.2565	53.0977	-261.0394	-42.2526	796.428	-2.1674	-2.4621	1.1022	-1.2926	0.11388	-2.5566	-0.0592	0.0182	-0.0073	-0.0462	0.0165	0.9585
7.579	23.9547	778.5987	52.7282	-259.8854	-40.5486	790.7887	-1.9669	-3.811	0.87279	-1.819	0.25679	-4.1983	-0.0592	0.0182	-0.0073	-0.0462	0.0165	0.9585
7.5925	26.7231	774.6112	52.5095	-257.8735	-39.059	783.0823	-1.5571	-5.2253	0.76819	-2.3839	0.19425	-5.898	-0.0592	0.0182	-0.0073	-0.0462	0.0165	0.9585
7.606	29.2821	768.7274	52.5546	-255.1401	-37.9196	773.7848	-0.77417	-6.3537	0.83123	-2.8421	-0.19274	-7.2418	-0.0592	0.0182	-0.0073	-0.0462	0.0165	0.9585
7.6195	31.6251	761.6761	52.9491	-251.9302	-37.2239	763.6431	0.54356	-6.6307	1.1134	-2.9618	-1.0408	-7.5624	-0.0592	0.0182	-0.0073	-0.0462	0.0165	0.9585
7.633	33.7873	754.3339	53.7136	-248.5519	-36.9841	753.5215	2.5341	-5.2345	1.6842	-2.4066	-2.4977	-5.8842	-0.0592	0.0182	-0.0073	-0.0462	0.0165	0.9585
7.6465	35.7976	747.5231	54.8113	-245.3035	-37.1566	744.2201	5.2902	-1.0681	2.6068	-0.72816	-4.6778	-0.91097	-0.0592	0.0182	-0.0073	-0.0462	0.0165	0.9585
7.66	37.6732	741.7596	56.1397	-242.3844	-37.6375	736.2216	8.7499	7.1744	3.9334	2.6068	-7.6099	8.9003	-0.0592	0.0182	-0.0073	-0.0462	0.0165	0.9585
7.6735	39.3987	737.0216	57.5656	-239.816	-38.3034	729.4912	12.6207	20.8262	5.6584	8.1455	-11.1484	25.1167	-0.0592	0.0182	-0.0073	-0.0462	0.0165	0.9585
7.687	40.8953	732.6513	58.8881	-237.4064	-38.9894	723.3919	16.2498	40.9666	7.6782	16.3307	-14.8828	48.9937	-0.0592	0.0182	-0.0073	-0.0462	0.0165	0.9585
7.7005	42.0451	727.4116	59.8842	-234.7688	-39.5248	716.7331	18.4811	67.8905	9.7106	27.2909	-18.0024	80.8481	-0.0592	0.0182	-0.0073	-0.0462	0.0165	0.9585
7.714	42.7282	719.7484	60.3015	-231.4136	-39.718	708.0228	17.9346	100.7297	11.2508	40.6694	-19.3651	119.6655	-0.0592	0.0182	-0.0073	-0.0462	0.0165	0.9585
7.7275	42.8719	708.183	59.9288	-226.8802	-39.4021	695.8344	13.9277	137.3887	11.7278	55.5715	-18.0206	163.0297	-0.0592	0.0182	-0.0073	-0.0462	0.0165	0.9585
7.741	42.5103	691.7147	58.6397	-220.867	-38.4527	679.1667	7.1788	174.4312	10.7679	70.5667	-13.9014	206.9147	-0.0592	0.0182	-0.0073	-0.0462	0.0165	0.9585
7.7545	41.8023	670.0663	56.4486	-213.3094	-36.8277	657.6788	-0.40001	208.3122	8.6905	84.219	-8.1673	246.9914	-0.0592	0.0182	-0.0073	-0.0462	0.0165	0.9585
7.768	40.9945	643.5924	53.4835	-204.3474	-34.5572	631.6252	-7.404	237.1681	5.6083	95.7613	-1.5645	280.961	-0.0592	0.0182	-0.0073	-0.0462	0.0165	0.9585
7.7815	40.2829	613.0044	49.8982	-194.2243	-31.7102	601.624	-13.1735	261.2256	2.0296	105.2948	5.0792	309.0562	-0.0592	0.0182	-0.0073	-0.0462	0.0165	0.9585
7.795	39.7621	579.0527	45.8276	-183.1814	-28.3695	568.3625	-17.6065	281.7111	-1.7785	113.3385	11.3924	332.781	-0.0592	0.0182	-0.0073	-0.0462	0.0165	0.9585
7.8085	39.4149	542.4518	41.3317	-171.436	-24.5844	532.5271	-20.9141	300.2976	-5.3738	120.6038	16.9742	354.1249	-0.0592	0.0182	-0.0073	-0.0462	0.0165	0.9585
7.822	39.1062	503.7846	36.482	-159.1504	-20.4517	494.7029	-23.3244	318.8493	-8.6142	127.8635	21.7464	375.2486	-0.0592	0.0182	-0.0073	-0.0462	0.0165	0.9585
7.8355	38.6322	463.4361	31.4048	-146.4103	-16.1401	455.275	-25.0463	339.3276	-11.3926	135.9131	25.6974	398.3872	-0.0592	0.0182	-0.0073	-0.0462	0.0165	0.9585
7.849	37.739	421.5386	26.3461	-133.2113	-11.9438	414.3736	-26.2929	363.5435	-13.9374	145.4633	29.1699	425.5986	-0.0592	0.0182	-0.0073	-0.0462	0.0165	0.9585
7.8625	36.1304	378.0986	21.5798	-119.5123	-8.1991	372.0007	-27.2315	392.8161	-16.5869	157.0101	32.6219	458.3446	-0.0592	0.0182	-0.0073	-0.0462	0.0165	0.9585
7.876	33.503	333.2872	17.3438	-105.3369	-5.2203	328.3115	-28.0206	427.7173	-19.8324	170.7429	36.6578	497.2235	-0.0592	0.0182	-0.0073	-0.0462	0.0165	0.9585
7.8895	29.6488	287.7355	13.7626	-90.876	-3.2001	283.8983	-28.8524	468.1483	-24.0287	186.5958	41.7419	542.0594	-0.0592	0.0182	-0.0073	-0.0462	0.0165	0.9585
7.903	24.6008	242.5956	10.8725	-76.5078	-2.1768	239.8633	-29.8787	513.5395	-29.2846	204.3332	48.0389	592.1421	-0.0592	0.0182	-0.0073	-0.0462	0.0165	0.9585
7.9165	18.6905	199.3559	8.633	-62.7298	-2.0198	197.6349	-31.1383	562.8249	-35.3982	223.5368	55.3288	646.205	-0.0592	0.0182	-0.0073	-0.0462	0.0165	0.9585
7.93	12.4784	159.4841	6.9697	-50.0328	-2.4934	158.6164	-32.5853	614.2231	-41.9411	243.5201	63.1077	702.1926	-0.0592	0.0182	-0.0073	-0.0462	0.0165	0.9585
7.9435	6.5642	124.0709	5.7597	-38.7827	-3.294	123.8575	-34.1343	665.2599	-48.4235	263.3223	70.7889	757.3216	-0.0592	0.0182	-0.0073	-0.0462	0.0165	0.9585
7.957	1.435	93.6497	4.854	-29.1583	-4.1257	93.886	-35.6542	713.0152	-54.3722	281.8031	77.8003	808.3623	-0.0592	0.0182	-0.0073	-0.0462	0.0165	0.9585
7.9705	-2.595	68.2467	4.1296	-21.1645	-4.77	68.7475	-37.0487	754.5047	-59.4583	297.788	83.7399	852.0793	-0.0592	0.0182	-0.0073	-0.0462	0.0165	0.9585
7.984	-5.3509	47.5951	3.4832	-14.7041	-5.0706	48.2138	-38.2262	787.1551	-63.4737	310.2619	88.3466	885.7229	-0.0592	0.0182	-0.0073	-0.0462	0.0165	0.9585
7.9975	-6.743	31.2692	2.8394	-9.6288	-4.9246	31.9081	-39.087	809.2543	-66.3781	318.5419	91.543	907.5072	-0.0592	0.0182	-0.0073	-0.0462	0.0165	0.9585
8.011	-6.7828	18.8019	2.154	-5.7799	-4.2943	19.4045	-39.5212	820.1504	-68.2168	322.3657	93.3442	916.7988	-0.0592	0.0182	-0.0073	-0.0462	0.0165	0.9585
8.0245	-5.7657	9.8195	1.4591	-3.0262	-3.309	10.3468	-39.4158	820.2443	-69.0983	321.8935	93.8309	914.0945	-0.0592	0.0182	-0.0073	-0.0462	0.0165	0.9585
8.038	-4.2991	3.9602	0.84983	-1.2411	-2.2519	4.4056	-38.6805	810.8678	-69.1314	317.659	93.0959	900.8896	-0.0592	0.0182	-0.0073	-0.0462	0.0165	0.9585
8.0515	-2.7791	0.60399	0.38138	-0.22795	-1.3041	0.98537	-37.2491	794.1049	-68.4658	310.4985	91.2875	879.4746	-0.0592	0.0182	-0.0073	-0.0462	0.0165	0.9585
8.065	-1.4498	-0.91254	0.054965	0.22122	-0.54884	-0.55768	-35.1194	772.6789	-67.2848	301.4962	88.6225	852.8131	-0.0592	0.0182	-0.0073	-0.0462	0.0165	0.9585
8.0785	-0.40234	-1.2054	-0.14474	0.29584	-0.008718	-0.85305	-32.3564	749.6474	-65.8457	291.8661	85.4196	824.2051	-0.0592	0.0182	-0.0073	-0.0462	0.0165	0.9585
8.092	0.3384	-0.78998	-0.24915	0.15196	0.33447	-0.41666	-29.085	728.0322	-64.3946	282.812	82.0069	796.8951	-0.0592	0.0182	-0.0073	-0.0462	0.0165	0.9585
8.1055	0.79929	-0.039931	-0.28492	-0.095726	0.51786	0.3825	-25.4554	710.4985	-63.1105	275.4071	78.6516	773.7194	-0.0592	0.0182	-0.0073	-0.0462	0.0165	0.9585
8.119	1.0443	0.78311	-0.27215	-0.36419	0.58443	1.2655	-21.6223	699.0982	-62.0626	270.4919	75.5058	756.8353	-0.0592	0.0182	-0.0073	-0.0462	0.0165	0.9585
8.1325	1.1153	1.5169	-0.23567	-0.59829	0.57305	2.0506	-17.7007	695.0412	-61.2589	268.5749	72.6319	747.4907	-0.0592	0.0182	-0.0073	-0.0462	0.0165	0.9585
8.146	1.0746	2.0406	-0.18777	-0.75796	0.51246	2.5832	-13.7368	698.5394	-60.6571	269.761	70.0032	745.863	-0.0592	0.0182	-0.0073	-0.0462	0.0165	0.9585
8.1595	0.96016	2.2695	-0.13191	-0.81538	0.41455	2.7763	-9.7589	708.7832	-60.2045	273.7361	67.5636	751.0726	-0.0592	0.0182	-0.0073	-0.0462	0.0165	0.9585
8.173	0.8054	2.1234	-0.069648	-0.74467	0.28866	2.5432	-5.7719	724.0701	-59.8419	279.8199	65.2406	761.338	-0.0592	0.0182	-0.0073	-0.0462	0.0165	0.9585
8.1865	0.63156	1.5216	0.0053912	-0.51985	0.1371	1.7872	-1.79	742.0493	-59.5217	287.0636	62.9753	774.2567	-0.0592	0.0182	-0.0073	-0.0462	0.0165	0.9585
8.2	0.45009	0.40407	0.089866	-0.12038	-0.032053	0.45035	2.1477	759.9956	-59.1905	294.3651	60.7105	787.0893	-0.0592	0.0182	-0.0073	-0.0462	0.0165	0.9585
8.2135	0.29953	-1.2739	0.17674	0.46745	-0.19462	-1.5184	5.9834	775.1819	-58.7889	300.6195	58.3951	797.1516	-0.0592	0.0182	-0.0073	-0.0462	0.0165	0.9585
8.227	0.21879	-3.4664	0.24512	1.2269	-0.30929	-4.0573	9.6529	785.3427	-58.2569	304.8991	55.9859	802.2713	-0.0592	0.0182	-0.0073	-0.0462	0.0165	0.9585
8.2405	0.27134	-5.9812	0.26535	2.0892	-0.31557	-6.9518	13.0874	789.0193	-57.5561	306.5948	53.4698	801.1084	-0.0592	0.0182	-0.0073	-0.0462	0.0165	0.9585
8.254	0.54193	-8.3961	0.19437	2.905	-0.13134	-9.7209	16.1816	785.7924	-56.6906	305.5052	50.8958	793.396	-0.0592	0.0182	-0.0073	-0.0462	0.0165	0.9585
